<mxfile host="Electron" agent="Mozilla/5.0 (Macintosh; Intel Mac OS X 10_15_7) AppleWebKit/537.36 (KHTML, like Gecko) draw.io/26.2.15 Chrome/134.0.6998.205 Electron/35.2.1 Safari/537.36" version="26.2.15">
  <diagram name="페이지-1" id="M_K9FoqL9HCVidbHZJs2">
    <mxGraphModel dx="1370" dy="740" grid="1" gridSize="10" guides="1" tooltips="1" connect="1" arrows="1" fold="1" page="1" pageScale="1" pageWidth="200" pageHeight="200" math="0" shadow="0">
      <root>
        <mxCell id="0" />
        <mxCell id="1" parent="0" />
        <mxCell id="UwfPKaDWVZ4-B8zDV_DR-1" value="" style="rounded=0;whiteSpace=wrap;html=1;" vertex="1" parent="1">
          <mxGeometry x="-360" y="56.09" width="830" height="223.91" as="geometry" />
        </mxCell>
        <mxCell id="UwfPKaDWVZ4-B8zDV_DR-2" value=":User" style="shape=umlActor;verticalLabelPosition=bottom;verticalAlign=top;html=1;outlineConnect=0;" vertex="1" parent="1">
          <mxGeometry x="-310" y="136.08500000000004" width="30" height="60" as="geometry" />
        </mxCell>
        <mxCell id="UwfPKaDWVZ4-B8zDV_DR-3" value=":LogoutUI" style="rounded=0;whiteSpace=wrap;html=1;" vertex="1" parent="1">
          <mxGeometry x="-150" y="146.08500000000004" width="120" height="40" as="geometry" />
        </mxCell>
        <mxCell id="UwfPKaDWVZ4-B8zDV_DR-4" value=":Logout" style="rounded=0;whiteSpace=wrap;html=1;" vertex="1" parent="1">
          <mxGeometry x="70" y="146.08500000000004" width="120" height="40" as="geometry" />
        </mxCell>
        <mxCell id="UwfPKaDWVZ4-B8zDV_DR-5" value="" style="endArrow=none;html=1;rounded=0;exitX=1;exitY=0.5;exitDx=0;exitDy=0;entryX=0;entryY=0.5;entryDx=0;entryDy=0;" edge="1" source="UwfPKaDWVZ4-B8zDV_DR-3" target="UwfPKaDWVZ4-B8zDV_DR-4" parent="1">
          <mxGeometry width="50" height="50" relative="1" as="geometry">
            <mxPoint x="10" y="216.08500000000004" as="sourcePoint" />
            <mxPoint x="60" y="166.08500000000004" as="targetPoint" />
          </mxGeometry>
        </mxCell>
        <mxCell id="UwfPKaDWVZ4-B8zDV_DR-6" value="" style="endArrow=none;html=1;rounded=0;entryX=0;entryY=0.5;entryDx=0;entryDy=0;" edge="1" source="UwfPKaDWVZ4-B8zDV_DR-2" target="UwfPKaDWVZ4-B8zDV_DR-3" parent="1">
          <mxGeometry width="50" height="50" relative="1" as="geometry">
            <mxPoint x="10" y="216.08500000000004" as="sourcePoint" />
            <mxPoint x="60" y="166.08500000000004" as="targetPoint" />
          </mxGeometry>
        </mxCell>
        <mxCell id="UwfPKaDWVZ4-B8zDV_DR-7" value=":User" style="rounded=0;whiteSpace=wrap;html=1;" vertex="1" parent="1">
          <mxGeometry x="320" y="146.08500000000004" width="90" height="40" as="geometry" />
        </mxCell>
        <mxCell id="UwfPKaDWVZ4-B8zDV_DR-8" value="" style="endArrow=none;html=1;rounded=0;entryX=1;entryY=0.5;entryDx=0;entryDy=0;exitX=0;exitY=0.5;exitDx=0;exitDy=0;" edge="1" source="UwfPKaDWVZ4-B8zDV_DR-7" target="UwfPKaDWVZ4-B8zDV_DR-4" parent="1">
          <mxGeometry width="50" height="50" relative="1" as="geometry">
            <mxPoint x="240" y="296.08500000000004" as="sourcePoint" />
            <mxPoint x="70" y="166.08500000000004" as="targetPoint" />
          </mxGeometry>
        </mxCell>
        <mxCell id="UwfPKaDWVZ4-B8zDV_DR-9" value="" style="endArrow=classic;html=1;rounded=0;" edge="1" parent="1">
          <mxGeometry width="50" height="50" relative="1" as="geometry">
            <mxPoint x="50" y="186.08500000000004" as="sourcePoint" />
            <mxPoint x="-16" y="186.08500000000004" as="targetPoint" />
          </mxGeometry>
        </mxCell>
        <mxCell id="UwfPKaDWVZ4-B8zDV_DR-10" value="" style="group" vertex="1" connectable="0" parent="1">
          <mxGeometry x="-359.995" y="76.09000000000003" width="167.5" height="82.82" as="geometry" />
        </mxCell>
        <mxCell id="UwfPKaDWVZ4-B8zDV_DR-11" value="" style="shape=card;whiteSpace=wrap;html=1;rotation=90;direction=south;size=21;" vertex="1" parent="UwfPKaDWVZ4-B8zDV_DR-10">
          <mxGeometry x="36.09" y="-56.09" width="28.44" height="100.64" as="geometry" />
        </mxCell>
        <mxCell id="UwfPKaDWVZ4-B8zDV_DR-12" value="&lt;span style=&quot;font-size: 15px;&quot;&gt;&lt;b&gt;Logout&lt;/b&gt;&lt;/span&gt;" style="text;html=1;align=center;verticalAlign=middle;whiteSpace=wrap;rounded=0;" vertex="1" parent="UwfPKaDWVZ4-B8zDV_DR-10">
          <mxGeometry x="0.004999999999997229" y="-21.995000000000005" width="90" height="30" as="geometry" />
        </mxCell>
        <mxCell id="UwfPKaDWVZ4-B8zDV_DR-13" value="1: startInterface()" style="text;html=1;align=center;verticalAlign=middle;whiteSpace=wrap;rounded=0;" vertex="1" parent="1">
          <mxGeometry x="-46" y="196.08500000000004" width="120" height="30" as="geometry" />
        </mxCell>
        <mxCell id="UwfPKaDWVZ4-B8zDV_DR-16" value="" style="endArrow=classic;html=1;rounded=0;" edge="1" parent="1">
          <mxGeometry width="50" height="50" relative="1" as="geometry">
            <mxPoint x="-16" y="145.41500000000005" as="sourcePoint" />
            <mxPoint x="50" y="145.41500000000005" as="targetPoint" />
          </mxGeometry>
        </mxCell>
        <mxCell id="UwfPKaDWVZ4-B8zDV_DR-17" value="" style="endArrow=classic;html=1;rounded=0;" edge="1" parent="1">
          <mxGeometry width="50" height="50" relative="1" as="geometry">
            <mxPoint x="-246" y="145.41500000000005" as="sourcePoint" />
            <mxPoint x="-180" y="145.41500000000005" as="targetPoint" />
          </mxGeometry>
        </mxCell>
        <mxCell id="UwfPKaDWVZ4-B8zDV_DR-18" value="2: logout()" style="text;html=1;align=center;verticalAlign=middle;whiteSpace=wrap;rounded=0;" vertex="1" parent="1">
          <mxGeometry x="-280" y="114.08500000000004" width="130" height="30" as="geometry" />
        </mxCell>
        <mxCell id="UwfPKaDWVZ4-B8zDV_DR-21" value="2.1: logout()" style="text;html=1;align=center;verticalAlign=middle;whiteSpace=wrap;rounded=0;" vertex="1" parent="1">
          <mxGeometry x="-59" y="114.08500000000004" width="146" height="30" as="geometry" />
        </mxCell>
        <mxCell id="UwfPKaDWVZ4-B8zDV_DR-26" value="" style="endArrow=classic;html=1;rounded=0;" edge="1" parent="1">
          <mxGeometry width="50" height="50" relative="1" as="geometry">
            <mxPoint x="224" y="145.41500000000005" as="sourcePoint" />
            <mxPoint x="290" y="145.41500000000005" as="targetPoint" />
          </mxGeometry>
        </mxCell>
        <mxCell id="UwfPKaDWVZ4-B8zDV_DR-27" value="2.1.1: logout()" style="text;html=1;align=center;verticalAlign=middle;whiteSpace=wrap;rounded=0;" vertex="1" parent="1">
          <mxGeometry x="181" y="114.08500000000004" width="146" height="30" as="geometry" />
        </mxCell>
      </root>
    </mxGraphModel>
  </diagram>
</mxfile>
